<svg xmlns="http://www.w3.org/2000/svg" version="1.1" xmlns:xlink="http://www.w3.org/1999/xlink" xmlns:svgjs="http://svgjs.dev/svgjs" width="1500" height="935" viewBox="0 0 1500 935"><g transform="matrix(1,0,0,1,-0.9090909090909918,0.3785425101214628)"><svg viewBox="0 0 396 247" data-background-color="#ffffff" preserveAspectRatio="xMidYMid meet" height="935" width="1500" xmlns="http://www.w3.org/2000/svg" xmlns:xlink="http://www.w3.org/1999/xlink"><g id="tight-bounds" transform="matrix(1,0,0,1,0.2400000000000091,-0.09999999999999432)"><svg viewBox="0 0 395.52 247.2" height="247.2" width="395.52"><g><svg></svg></g><g><svg viewBox="0 0 395.52 247.2" height="247.2" width="395.52"><g transform="matrix(1,0,0,1,135.29128940918235,47.215199999999996)"><svg viewBox="0 0 124.9374211816353 152.7696" height="152.7696" width="124.9374211816353"><g><svg viewBox="0 0 124.9374211816353 152.7696" height="152.7696" width="124.9374211816353"><g><svg viewBox="0 0 124.9374211816353 152.7696" height="152.7696" width="124.9374211816353"><g><svg viewBox="0 0 124.9374211816353 152.7696" height="152.7696" width="124.9374211816353"><g id="textblocktransform"><svg viewBox="0 0 124.9374211816353 152.7696" height="152.7696" width="124.9374211816353" id="textblock"><g><svg viewBox="0 0 124.9374211816353 152.7696" height="152.7696" width="124.9374211816353"><g transform="matrix(1,0,0,1,0,0)"><svg width="124.9374211816353" viewBox="0.2531746031746032 -39.05 31.936248137097397 39.05" height="152.7696" data-palette-color="#4894c2"><path d="M16.2 0L16.2 0Q15.4 0 14.83-0.58 14.25-1.15 14.25-1.95L14.25-1.95 14.25-14.45 0.65-36Q0.15-36.75 0.28-37.45 0.4-38.15 0.9-38.6 1.4-39.05 2.15-39.05L2.15-39.05Q2.75-39.05 3.13-38.8 3.5-38.55 3.8-38.1L3.8-38.1 17.3-16.35 15.2-16.35 28.65-38Q29-38.55 29.43-38.8 29.85-39.05 30.45-39.05L30.45-39.05Q31.15-39.05 31.63-38.58 32.1-38.1 32.18-37.4 32.25-36.7 31.8-36L31.8-36 18.15-14.45 18.15-1.95Q18.15-1.15 17.57-0.58 17 0 16.2 0Z" opacity="1" transform="matrix(1,0,0,1,0,0)" fill="#4894c2" class="wordmark-text-0" data-fill-palette-color="primary" id="text-0"></path></svg></g></svg></g></svg></g></svg></g></svg></g></svg></g></svg></g><g><path d="M186.069 0c30.402 0 58.24 10.976 79.768 29.183l-11.147 0c-19.26-14.022-42.974-22.294-68.621-22.295-25.647 0-49.361 8.272-68.621 22.295l-11.148 0c21.528-18.206 49.366-29.183 79.769-29.183zM186.069 247.2c-30.402 0-58.24-10.976-79.768-29.183h11.147c19.26 14.022 42.974 22.294 68.621 22.295 25.647 0 49.361-8.272 68.621-22.295l11.147 0c-21.528 18.206-49.366 29.183-79.768 29.183z" fill="#194a68" stroke="transparent" data-fill-palette-color="tertiary"></path></g></svg></g><defs></defs></svg><rect width="395.52" height="247.2" fill="none" stroke="none" visibility="hidden"></rect></g></svg></g></svg>